<mxfile host="Electron" modified="2024-06-14T09:14:58.499Z" agent="Mozilla/5.0 (Windows NT 10.0; Win64; x64) AppleWebKit/537.36 (KHTML, like Gecko) draw.io/21.1.2 Chrome/106.0.5249.199 Electron/21.4.3 Safari/537.36" etag="tj5_Jd-SybRUup7FEEDu" version="21.1.2" type="device">
  <diagram name="Page-1" id="63do4BFvybDnQlAOi2Kh">
    <mxGraphModel dx="1200" dy="775" grid="1" gridSize="10" guides="1" tooltips="1" connect="1" arrows="1" fold="1" page="1" pageScale="1" pageWidth="1169" pageHeight="827" math="0" shadow="0">
      <root>
        <mxCell id="0" />
        <mxCell id="1" parent="0" />
        <mxCell id="ftBcJTYbdqsISM8qQQzO-4" style="edgeStyle=orthogonalEdgeStyle;rounded=0;orthogonalLoop=1;jettySize=auto;html=1;exitX=1;exitY=0.5;exitDx=0;exitDy=0;entryX=0;entryY=0.5;entryDx=0;entryDy=0;" parent="1" source="ftBcJTYbdqsISM8qQQzO-1" target="ftBcJTYbdqsISM8qQQzO-3" edge="1">
          <mxGeometry relative="1" as="geometry" />
        </mxCell>
        <mxCell id="h9zxGiBtYyHg93PIxB3k-9" style="edgeStyle=orthogonalEdgeStyle;rounded=0;orthogonalLoop=1;jettySize=auto;html=1;exitX=0.5;exitY=0;exitDx=0;exitDy=0;entryX=0;entryY=0.5;entryDx=0;entryDy=0;entryPerimeter=0;strokeColor=#0F2FFF;" edge="1" parent="1" source="ftBcJTYbdqsISM8qQQzO-1" target="ftBcJTYbdqsISM8qQQzO-8">
          <mxGeometry relative="1" as="geometry" />
        </mxCell>
        <mxCell id="ftBcJTYbdqsISM8qQQzO-1" value="&lt;font style=&quot;font-size: 16px;&quot;&gt;Initial prompt&lt;/font&gt;" style="rounded=1;whiteSpace=wrap;html=1;fillColor=#f5f5f5;strokeColor=#000000;fontColor=#333333;" parent="1" vertex="1">
          <mxGeometry x="162" y="124" width="120" height="60" as="geometry" />
        </mxCell>
        <mxCell id="ftBcJTYbdqsISM8qQQzO-6" style="edgeStyle=orthogonalEdgeStyle;rounded=0;orthogonalLoop=1;jettySize=auto;html=1;entryX=0;entryY=0.5;entryDx=0;entryDy=0;" parent="1" source="ftBcJTYbdqsISM8qQQzO-3" target="ftBcJTYbdqsISM8qQQzO-5" edge="1">
          <mxGeometry relative="1" as="geometry" />
        </mxCell>
        <mxCell id="ftBcJTYbdqsISM8qQQzO-3" value="&lt;font style=&quot;font-size: 16px;&quot;&gt;LLM&lt;/font&gt;" style="rhombus;whiteSpace=wrap;html=1;fillColor=#000000;fontColor=#FFFFFF;" parent="1" vertex="1">
          <mxGeometry x="342" y="114" width="80" height="80" as="geometry" />
        </mxCell>
        <mxCell id="ftBcJTYbdqsISM8qQQzO-11" style="edgeStyle=orthogonalEdgeStyle;rounded=0;orthogonalLoop=1;jettySize=auto;html=1;entryX=0;entryY=0.5;entryDx=0;entryDy=0;" parent="1" source="ftBcJTYbdqsISM8qQQzO-5" target="ftBcJTYbdqsISM8qQQzO-10" edge="1">
          <mxGeometry relative="1" as="geometry" />
        </mxCell>
        <mxCell id="ftBcJTYbdqsISM8qQQzO-12" style="edgeStyle=orthogonalEdgeStyle;rounded=0;orthogonalLoop=1;jettySize=auto;html=1;exitX=0.5;exitY=0;exitDx=0;exitDy=0;entryX=0;entryY=0.5;entryDx=0;entryDy=0;entryPerimeter=0;strokeColor=#0F2FFF;" parent="1" source="ftBcJTYbdqsISM8qQQzO-5" target="ftBcJTYbdqsISM8qQQzO-8" edge="1">
          <mxGeometry relative="1" as="geometry" />
        </mxCell>
        <mxCell id="ftBcJTYbdqsISM8qQQzO-5" value="&lt;font style=&quot;font-size: 16px;&quot;&gt;Answer&lt;/font&gt;" style="rounded=1;whiteSpace=wrap;html=1;" parent="1" vertex="1">
          <mxGeometry x="492" y="124" width="120" height="60" as="geometry" />
        </mxCell>
        <mxCell id="ftBcJTYbdqsISM8qQQzO-8" value="&lt;span style=&quot;font-size: 18px;&quot;&gt;KG&lt;/span&gt;" style="shape=cylinder3;whiteSpace=wrap;html=1;boundedLbl=1;backgroundOutline=1;size=15;fillColor=#FFFFFF;strokeColor=#0F2FFF;" parent="1" vertex="1">
          <mxGeometry x="678" y="20" width="60" height="64" as="geometry" />
        </mxCell>
        <mxCell id="ftBcJTYbdqsISM8qQQzO-13" style="edgeStyle=orthogonalEdgeStyle;rounded=0;orthogonalLoop=1;jettySize=auto;html=1;exitX=0.5;exitY=0;exitDx=0;exitDy=0;entryX=0.5;entryY=1;entryDx=0;entryDy=0;entryPerimeter=0;strokeColor=#0F2FFF;" parent="1" source="ftBcJTYbdqsISM8qQQzO-10" target="ftBcJTYbdqsISM8qQQzO-8" edge="1">
          <mxGeometry relative="1" as="geometry" />
        </mxCell>
        <mxCell id="ftBcJTYbdqsISM8qQQzO-17" style="edgeStyle=orthogonalEdgeStyle;rounded=0;orthogonalLoop=1;jettySize=auto;html=1;exitX=1;exitY=0.5;exitDx=0;exitDy=0;entryX=0;entryY=0.5;entryDx=0;entryDy=0;" parent="1" source="ftBcJTYbdqsISM8qQQzO-10" target="ftBcJTYbdqsISM8qQQzO-16" edge="1">
          <mxGeometry relative="1" as="geometry" />
        </mxCell>
        <mxCell id="ftBcJTYbdqsISM8qQQzO-10" value="&lt;font style=&quot;font-size: 16px;&quot;&gt;Assess /&lt;br&gt;Compute metrics&lt;/font&gt;" style="rhombus;whiteSpace=wrap;html=1;fillColor=#000000;fontColor=#FFFFFF;" parent="1" vertex="1">
          <mxGeometry x="654" y="99" width="110" height="110" as="geometry" />
        </mxCell>
        <mxCell id="ftBcJTYbdqsISM8qQQzO-26" style="edgeStyle=orthogonalEdgeStyle;rounded=0;orthogonalLoop=1;jettySize=auto;html=1;exitX=0.5;exitY=1;exitDx=0;exitDy=0;entryX=1;entryY=0.5;entryDx=0;entryDy=0;" parent="1" source="ftBcJTYbdqsISM8qQQzO-16" target="ftBcJTYbdqsISM8qQQzO-21" edge="1">
          <mxGeometry relative="1" as="geometry" />
        </mxCell>
        <mxCell id="ftBcJTYbdqsISM8qQQzO-31" style="edgeStyle=orthogonalEdgeStyle;rounded=0;orthogonalLoop=1;jettySize=auto;html=1;exitX=1;exitY=0.5;exitDx=0;exitDy=0;entryX=0;entryY=0.5;entryDx=0;entryDy=0;" parent="1" source="ftBcJTYbdqsISM8qQQzO-16" target="ftBcJTYbdqsISM8qQQzO-30" edge="1">
          <mxGeometry relative="1" as="geometry" />
        </mxCell>
        <mxCell id="ftBcJTYbdqsISM8qQQzO-16" value="Haulting clause reached?" style="rhombus;whiteSpace=wrap;html=1;fontSize=16;fillColor=#ACA3FF;strokeColor=#000000;" parent="1" vertex="1">
          <mxGeometry x="808" y="99" width="110" height="110" as="geometry" />
        </mxCell>
        <mxCell id="ftBcJTYbdqsISM8qQQzO-18" value="Yes" style="text;html=1;strokeColor=none;fillColor=none;align=center;verticalAlign=middle;whiteSpace=wrap;rounded=0;fontStyle=1;fontSize=14;" parent="1" vertex="1">
          <mxGeometry x="908" y="129" width="40" height="30" as="geometry" />
        </mxCell>
        <mxCell id="ftBcJTYbdqsISM8qQQzO-20" value="No" style="text;html=1;strokeColor=none;fillColor=none;align=center;verticalAlign=middle;whiteSpace=wrap;rounded=0;fontSize=14;fontStyle=1" parent="1" vertex="1">
          <mxGeometry x="857" y="200" width="40" height="30" as="geometry" />
        </mxCell>
        <mxCell id="h9zxGiBtYyHg93PIxB3k-5" style="edgeStyle=orthogonalEdgeStyle;rounded=0;orthogonalLoop=1;jettySize=auto;html=1;exitX=0.5;exitY=0;exitDx=0;exitDy=0;entryX=1;entryY=0.5;entryDx=0;entryDy=0;" edge="1" parent="1" source="ftBcJTYbdqsISM8qQQzO-21" target="ftBcJTYbdqsISM8qQQzO-22">
          <mxGeometry relative="1" as="geometry">
            <Array as="points">
              <mxPoint x="512" y="251" />
              <mxPoint x="512" y="251" />
            </Array>
          </mxGeometry>
        </mxCell>
        <mxCell id="h9zxGiBtYyHg93PIxB3k-7" style="edgeStyle=orthogonalEdgeStyle;rounded=0;orthogonalLoop=1;jettySize=auto;html=1;exitX=0.5;exitY=1;exitDx=0;exitDy=0;entryX=0.5;entryY=1;entryDx=0;entryDy=0;" edge="1" parent="1" source="ftBcJTYbdqsISM8qQQzO-21" target="ftBcJTYbdqsISM8qQQzO-1">
          <mxGeometry relative="1" as="geometry">
            <mxPoint x="552" y="360" as="sourcePoint" />
            <mxPoint x="172" y="183" as="targetPoint" />
            <Array as="points">
              <mxPoint x="222" y="354" />
            </Array>
          </mxGeometry>
        </mxCell>
        <mxCell id="ftBcJTYbdqsISM8qQQzO-21" value="Update &lt;br style=&quot;font-size: 16px;&quot;&gt;prompt/&lt;br style=&quot;font-size: 16px;&quot;&gt;goals ?" style="rhombus;whiteSpace=wrap;html=1;fontSize=16;fillColor=#000000;fontColor=#FFFFFF;" parent="1" vertex="1">
          <mxGeometry x="492" y="249" width="106" height="105" as="geometry" />
        </mxCell>
        <mxCell id="h9zxGiBtYyHg93PIxB3k-8" style="edgeStyle=orthogonalEdgeStyle;rounded=0;orthogonalLoop=1;jettySize=auto;html=1;exitX=0.5;exitY=0;exitDx=0;exitDy=0;entryX=0.5;entryY=1;entryDx=0;entryDy=0;" edge="1" parent="1" source="ftBcJTYbdqsISM8qQQzO-22" target="ftBcJTYbdqsISM8qQQzO-3">
          <mxGeometry relative="1" as="geometry" />
        </mxCell>
        <mxCell id="h9zxGiBtYyHg93PIxB3k-10" style="edgeStyle=orthogonalEdgeStyle;rounded=0;orthogonalLoop=1;jettySize=auto;html=1;exitX=1;exitY=0;exitDx=0;exitDy=0;entryX=0;entryY=0.5;entryDx=0;entryDy=0;entryPerimeter=0;strokeColor=#0F2FFF;" edge="1" parent="1" source="ftBcJTYbdqsISM8qQQzO-22" target="ftBcJTYbdqsISM8qQQzO-8">
          <mxGeometry relative="1" as="geometry">
            <Array as="points">
              <mxPoint x="428" y="221" />
              <mxPoint x="428" y="52" />
            </Array>
          </mxGeometry>
        </mxCell>
        <mxCell id="ftBcJTYbdqsISM8qQQzO-22" value="&lt;font style=&quot;font-size: 16px;&quot;&gt;New prompt&lt;/font&gt;" style="rounded=1;whiteSpace=wrap;html=1;fillColor=#FFF34D;strokeColor=#000000;" parent="1" vertex="1">
          <mxGeometry x="322" y="221" width="120" height="60" as="geometry" />
        </mxCell>
        <mxCell id="ftBcJTYbdqsISM8qQQzO-28" value="Yes" style="text;html=1;strokeColor=none;fillColor=none;align=center;verticalAlign=middle;whiteSpace=wrap;rounded=0;fontSize=14;fontStyle=1" parent="1" vertex="1">
          <mxGeometry x="545" y="236" width="40" height="30" as="geometry" />
        </mxCell>
        <mxCell id="ftBcJTYbdqsISM8qQQzO-29" value="No" style="text;html=1;strokeColor=none;fillColor=none;align=center;verticalAlign=middle;whiteSpace=wrap;rounded=0;fontStyle=1;fontSize=14;" parent="1" vertex="1">
          <mxGeometry x="542" y="340" width="40" height="30" as="geometry" />
        </mxCell>
        <mxCell id="h9zxGiBtYyHg93PIxB3k-12" style="edgeStyle=orthogonalEdgeStyle;rounded=0;orthogonalLoop=1;jettySize=auto;html=1;exitX=0.5;exitY=0;exitDx=0;exitDy=0;entryX=1;entryY=0.5;entryDx=0;entryDy=0;entryPerimeter=0;strokeColor=#0F2FFF;" edge="1" parent="1" source="ftBcJTYbdqsISM8qQQzO-30" target="ftBcJTYbdqsISM8qQQzO-8">
          <mxGeometry relative="1" as="geometry" />
        </mxCell>
        <mxCell id="ftBcJTYbdqsISM8qQQzO-30" value="Conclusion" style="rounded=1;whiteSpace=wrap;html=1;fillColor=#FE8081;strokeColor=#000000;fontSize=16;" parent="1" vertex="1">
          <mxGeometry x="958" y="124" width="120" height="60" as="geometry" />
        </mxCell>
        <mxCell id="h9zxGiBtYyHg93PIxB3k-14" style="edgeStyle=orthogonalEdgeStyle;rounded=0;orthogonalLoop=1;jettySize=auto;html=1;exitX=1;exitY=0.5;exitDx=0;exitDy=0;entryX=0;entryY=0.5;entryDx=0;entryDy=0;" edge="1" parent="1" source="h9zxGiBtYyHg93PIxB3k-13" target="ftBcJTYbdqsISM8qQQzO-1">
          <mxGeometry relative="1" as="geometry" />
        </mxCell>
        <mxCell id="h9zxGiBtYyHg93PIxB3k-15" style="edgeStyle=orthogonalEdgeStyle;rounded=0;orthogonalLoop=1;jettySize=auto;html=1;exitX=0.5;exitY=0;exitDx=0;exitDy=0;entryX=0;entryY=0.5;entryDx=0;entryDy=0;entryPerimeter=0;strokeColor=#0F2FFF;" edge="1" parent="1" source="h9zxGiBtYyHg93PIxB3k-13" target="ftBcJTYbdqsISM8qQQzO-8">
          <mxGeometry relative="1" as="geometry">
            <mxPoint x="118" y="54" as="targetPoint" />
          </mxGeometry>
        </mxCell>
        <mxCell id="h9zxGiBtYyHg93PIxB3k-13" value="&lt;font style=&quot;font-size: 16px;&quot;&gt;Setting a goal and a scenario&lt;/font&gt;" style="rounded=1;whiteSpace=wrap;html=1;fillColor=#f5f5f5;strokeColor=#000000;fontColor=#333333;" vertex="1" parent="1">
          <mxGeometry x="8" y="124" width="120" height="60" as="geometry" />
        </mxCell>
      </root>
    </mxGraphModel>
  </diagram>
</mxfile>
